<!-- Placeholder for food images when imageUrl is not available -->
<svg width="80" height="64" viewBox="0 0 80 64" fill="none" xmlns="http://www.w3.org/2000/svg">
  <rect width="80" height="64" fill="#F3F4F6"/>
  <path d="M32 24C32 22.8954 32.8954 22 34 22H46C47.1046 22 48 22.8954 48 24V26H50C51.1046 26 52 26.8954 52 28V38C52 39.1046 51.1046 40 50 40H30C28.8954 40 28 39.1046 28 38V28C28 26.8954 28.8954 26 30 26H32V24Z" fill="#9CA3AF"/>
  <circle cx="35" cy="31" r="2" fill="#6B7280"/>
  <circle cx="45" cy="31" r="2" fill="#6B7280"/>
  <path d="M35 35C35 35 37 37 40 37C43 37 45 35 45 35" stroke="#6B7280" stroke-width="2" stroke-linecap="round"/>
  <text x="40" y="50" text-anchor="middle" fill="#6B7280" font-size="8" font-family="system-ui">Food Item</text>
</svg>
